<?xml version="1.0" encoding="UTF-8"?>
<svg width="16px" height="16px" viewBox="0 0 16 16" version="1.1" xmlns="http://www.w3.org/2000/svg" xmlns:xlink="http://www.w3.org/1999/xlink">
    <title>37321195-3A42-4B17-8A6E-A1B1F30EE4DF</title>
    <defs>
        <polygon id="path-1" points="0 -2.07957624e-05 15.9071304 -2.07957624e-05 15.9071304 14.1221913 0 14.1221913"></polygon>
    </defs>
    <g id="Guidelines" stroke="none" stroke-width="1" fill="none" fill-rule="evenodd">
        <g id="04_Guidelines_Iconography" transform="translate(-907.000000, -867.000000)">
            <g id="icon" transform="translate(850.000000, 810.000000)">
                <g id="01-Atoms-/-01-Icons-/-03-Header-/-28-Whislist-inactive" transform="translate(57.000000, 57.000000)">
                    <g id="Group-3" transform="translate(0.000000, 1.000000)">
                        <mask id="mask-2" fill="white">
                            <use xlink:href="#path-1"></use>
                        </mask>
                        <g id="Clip-2"></g>
                        <path d="M4.21742609,0.568452174 C4.03307826,0.568452174 3.84525217,0.581321739 3.65394783,0.606713043 C2.68177391,0.737495652 1.82751304,1.2394087 1.24803478,2.01993043 C0.648730435,2.82758261 0.408382609,3.82932174 0.57186087,4.84149565 C0.691513043,5.58271304 1.07133913,6.27766957 1.73290435,6.96566957 C3.18542609,8.47662609 4.64664348,9.97888696 6.1082087,11.4814957 L7.95273043,13.378887 L9.54716522,11.7374957 C11.0271652,10.214713 12.5071652,8.69158261 13.9826435,7.16427826 C14.2292522,6.90897391 14.4682087,6.6181913 14.7141217,6.27523478 C15.4059478,5.30966957 15.5621217,4.22097391 15.1777739,3.0394087 C14.619513,1.32288696 12.9353391,0.284626087 11.1662957,0.568452174 C9.8122087,0.787234783 8.8376,1.59593043 8.26925217,2.97193043 C8.25568696,3.00462609 8.24351304,3.03836522 8.22855652,3.0794087 L7.96629565,3.77784348 L7.68177391,3.10827826 C7.66542609,3.07036522 7.65394783,3.04393043 7.64386087,3.0168 C7.05742609,1.47071304 5.77290435,0.568452174 4.21742609,0.568452174 L4.21742609,0.568452174 Z M7.95551304,14.1221913 L7.6442087,13.8098435 L5.73394783,11.8449739 C4.27203478,10.3420174 2.80977391,8.83906087 1.35690435,7.32706087 C0.619165217,6.56010435 0.193773913,5.77436522 0.0567304348,4.92462609 C-0.129356522,3.77227826 0.145078261,2.63036522 0.829252174,1.70897391 C1.49325217,0.814713043 2.47168696,0.239408696 3.58438261,0.0898434783 C5.4602087,-0.162330435 7.12838261,0.740278261 7.94994783,2.41262609 C8.60907826,1.07593043 9.6616,0.283234783 11.083513,0.0536695652 C13.1043826,-0.272591304 15.035513,0.915234783 15.6737739,2.87836522 C16.1123826,4.22584348 15.9322087,5.47106087 15.1381217,6.57923478 C14.8776,6.94306087 14.6222957,7.25297391 14.3576,7.52671304 C12.8821217,9.05471304 11.4017739,10.5778435 9.92142609,12.1013217 L7.95551304,14.1221913 Z" id="Fill-1" fill="#000000" mask="url(#mask-2)"></path>
                    </g>
                </g>
            </g>
        </g>
    </g>
</svg>